<?xml version="1.0" encoding="UTF-8"?>
<svg width="239px" height="75px" viewBox="0 0 239 75" version="1.1" xmlns="http://www.w3.org/2000/svg" xmlns:xlink="http://www.w3.org/1999/xlink">
    <!-- Generator: Sketch 53.2 (72643) - https://sketchapp.com -->
    <title>Group 3</title>
    <desc>Created with Sketch.</desc>
    <g id="design-system" stroke="none" stroke-width="1" fill="none" fill-rule="evenodd">
        <g id="Artboard" transform="translate(-40.000000, -350.000000)" fill="#FFFFFF">
            <g id="Group-3" transform="translate(40.000000, 350.000000)">
                <path d="M226.595745,42.3157895 L172.978723,42.3157895 L172.978723,74.5263158 L238.085106,74.5263158 L238.085106,32.2105263 L226.595745,32.2105263 L226.595745,42.3157895 Z M226.595745,51.1578947 L184.468085,51.1578947 L184.468085,63.1578947 L226.595745,63.1578947 L226.595745,51.1578947 Z M172.978723,20.8421053 L172.978723,32.2105263 L226.595745,32.2105263 L226.595745,20.8421053 L172.978723,20.8421053 Z" id="Shape"></path>
                <rect id="Rectangle-path" transform="translate(156.382979, 37.263158) scale(-1, 1) translate(-156.382979, -37.263158) " x="150.638298" y="3.55271368e-14" width="11.4893617" height="74.5263158"></rect>
                <path d="M128.297872,63.1578947 L128.297872,32.2105263 L86.8085106,32.2105263 L86.8085106,63.1578947 L128.297872,63.1578947 Z M139.787234,74.5263158 L139.787234,3.55271368e-14 L128.297872,3.55271368e-14 L128.297872,20.8421053 L75.3191489,20.8421053 L75.3191489,74.5263158 L139.787234,74.5263158 Z" id="Shape"></path>
                <polygon id="Shape" points="11.4893617 32.2105263 11.4893617 74.5263158 -3.90798505e-13 74.5263158 -3.90798505e-13 20.8421053 64.4680851 20.8421053 64.4680851 74.5263158 52.9787234 74.5263158 52.9787234 32.2105263"></polygon>
            </g>
        </g>
    </g>
</svg>