<?xml version="1.0" encoding="UTF-8"?>
<svg width="240px" height="96px" viewBox="0 0 240 96" version="1.1" xmlns="http://www.w3.org/2000/svg" xmlns:xlink="http://www.w3.org/1999/xlink">
    <!-- Generator: Sketch 53.2 (72643) - https://sketchapp.com -->
    <title>logo/black</title>
    <desc>Created with Sketch.</desc>
    <g id="design-system" stroke="none" stroke-width="1" fill="none" fill-rule="evenodd">
        <g id="Artboard" transform="translate(-40.000000, -40.000000)" fill="#444444">
            <g id="logo/black" transform="translate(40.000000, 40.000000)">
                <g id="c-logo__graphic">
                    <path d="M226.595745,42.3157895 L172.978723,42.3157895 L172.978723,74.5263158 L238.085106,74.5263158 L238.085106,32.2105263 L226.595745,32.2105263 L226.595745,42.3157895 Z M226.595745,51.1578947 L184.468085,51.1578947 L184.468085,63.1578947 L226.595745,63.1578947 L226.595745,51.1578947 Z M172.978723,20.8421053 L172.978723,32.2105263 L226.595745,32.2105263 L226.595745,20.8421053 L172.978723,20.8421053 Z" id="Shape"></path>
                    <rect id="Rectangle-path" transform="translate(156.382979, 37.263158) scale(-1, 1) translate(-156.382979, -37.263158) " x="150.638298" y="0" width="11.4893617" height="74.5263158"></rect>
                    <path d="M128.297872,63.1578947 L128.297872,32.2105263 L86.8085106,32.2105263 L86.8085106,63.1578947 L128.297872,63.1578947 Z M139.787234,74.5263158 L139.787234,0 L128.297872,0 L128.297872,20.8421053 L75.3191489,20.8421053 L75.3191489,74.5263158 L139.787234,74.5263158 Z" id="Shape"></path>
                    <polygon id="Shape" points="11.4893617 32.2105263 11.4893617 74.5263158 0 74.5263158 0 20.8421053 64.4680851 20.8421053 64.4680851 74.5263158 52.9787234 74.5263158 52.9787234 32.2105263"></polygon>
                    <path d="M0.510638298,95.3684211 L0.510638298,85.0863158 L6.85531915,91.1368421 C7.23779058,91.5179681 7.59998137,91.9185085 7.94042553,92.3368421 L7.94042553,85.4778947 L9.44042553,85.4778947 L9.44042553,95.7536842 L2.96808511,89.6021053 C2.61511184,89.259683 2.29264053,88.8877789 2.00425532,88.4905263 L2.00425532,95.3684211 L0.510638298,95.3684211 Z M13.8510638,91.4842105 L16.6276596,91.4842105 L15.606383,89.2294737 C15.4555635,88.8634992 15.3297487,88.4879176 15.2297872,88.1052632 C15.1354143,88.4872765 15.016013,88.8628071 14.8723404,89.2294737 L13.8510638,91.4842105 L13.8510638,91.4842105 Z M18.3382979,95.3684211 L17.2021277,92.8231579 L13.2446809,92.8231579 L12.0829787,95.3684211 L10.3787234,95.3684211 L15.2170213,85.0863158 L20.0489362,95.3684211 L18.3382979,95.3684211 Z M20.4191489,93.3915789 L21.7148936,92.7978947 C21.8425532,93.24 22.0659574,93.5747368 22.3914894,93.8084211 C22.7628804,94.0530587 23.2031851,94.1746924 23.6489362,94.1557895 C24.1276596,94.1557895 24.5106383,94.0168421 24.7978723,93.7515789 C25.0787234,93.4863158 25.2255319,93.1326316 25.2255319,92.6842105 C25.2255319,92.1094737 24.7340426,91.5915789 23.7574468,91.1368421 L23.4510638,90.9852632 C22.3468085,90.4547368 21.612766,89.9747368 21.2489362,89.5452632 C20.877786,89.1026261 20.682603,88.5412061 20.7,87.9663158 C20.6725744,87.2247745 20.9760158,86.5088001 21.5297872,86.0084211 C22.0787234,85.5031579 22.806383,85.2568421 23.7,85.2568421 C24.4404255,85.2568421 25.0531915,85.3957895 25.5510638,85.68 C26.034746,85.94461 26.4028907,86.3763368 26.5851064,86.8926316 L25.3085106,87.5431579 C25.1170213,87.2273684 24.893617,87 24.6510638,86.8610526 C24.4148936,86.7157895 24.1404255,86.64 23.8340426,86.64 C23.393617,86.64 23.0489362,86.7536842 22.787234,86.9810526 C22.5319149,87.2084211 22.4042553,87.5052632 22.4042553,87.8842105 C22.4042553,88.4778947 22.9659574,89.0336842 24.0957447,89.5452632 L24.3,89.64 C25.0630453,89.9400584 25.7559777,90.3914191 26.3361702,90.9663158 C26.706383,91.3894737 26.8914894,91.9263158 26.8914894,92.5705263 C26.9338686,93.4085041 26.6080475,94.2236938 25.9978723,94.8063158 C25.3304433,95.3814906 24.462431,95.6760916 23.5787234,95.6273684 C22.7297872,95.6273684 22.0276596,95.4378947 21.4851064,95.0526316 C20.9324422,94.6502515 20.5521407,94.0576379 20.4191489,93.3915789 L20.4191489,93.3915789 Z M28.5829787,93.5747368 C28.7489362,93.7642105 28.9148936,93.9157895 29.0680851,94.0042105 C29.2212766,94.0926316 29.387234,94.1368421 29.5595745,94.1368421 C29.8787234,94.1368421 30.1021277,94.0357895 30.2297872,93.8273684 C30.3574468,93.6189474 30.4212766,93.2336842 30.4212766,92.6715789 L30.4212766,85.4778947 L32.0361702,85.4778947 L32.0361702,93.1957895 C32.0361702,94.0294737 31.8446809,94.6484211 31.4744681,95.04 C31.1042553,95.4378947 30.5170213,95.6336842 29.7255319,95.6336842 C28.8749927,95.6481717 28.0668373,95.2670527 27.5425532,94.6042105 L28.5829787,93.5747368 L28.5829787,93.5747368 Z M42.7212766,90.4421053 C42.7257113,89.462303 42.3432173,88.519533 41.6553191,87.8147368 C40.9823402,87.1200324 40.0490894,86.7314616 39.0765957,86.7410526 C38.1032274,86.7364168 37.1698942,87.1240624 36.4914894,87.8147368 C36.1485096,88.1577787 35.8792715,88.5659785 35.7,89.0147368 C35.1449072,90.399568 35.4538552,91.9773535 36.4914894,93.0568421 C37.1675643,93.7503899 38.0995591,94.1421561 39.0734043,94.1421561 C40.0472494,94.1421561 40.9792442,93.7503899 41.6553191,93.0568421 C42.3447868,92.3581804 42.7278377,91.4185768 42.7212766,90.4421053 L42.7212766,90.4421053 Z M44.4191489,90.4421053 C44.4238371,91.8247852 43.8591872,93.149717 42.8553191,94.1115789 C41.8406051,95.0803732 40.486655,95.623494 39.0765957,95.6273684 C36.9357433,95.6303955 34.9952369,94.3817241 34.1297872,92.4442105 C33.8631985,91.8099495 33.7286012,91.1290109 33.7340426,90.4421053 C33.7274456,88.3234336 35.0350823,86.4177305 37.0276596,85.6421053 C37.6797338,85.3868605 38.3753688,85.2582039 39.0765957,85.2631579 C40.4857795,85.2590163 41.8411733,85.7981854 42.8553191,86.7663158 C43.8498134,87.7370911 44.4125626,89.0598357 44.4191489,90.4421053 L44.4191489,90.4421053 Z M46.2829787,95.3684211 L46.2829787,85.0863158 L52.6276596,91.1368421 C53.010131,91.5179681 53.3723218,91.9185085 53.712766,92.3368421 L53.712766,85.4778947 L55.212766,85.4778947 L55.212766,95.7536842 L48.7404255,89.6021053 C48.3874523,89.259683 48.064981,88.8877789 47.7765957,88.4905263 L47.7765957,95.3684211 L46.2765957,95.3684211 L46.2829787,95.3684211 Z M59.6234043,91.4842105 L62.4,91.4842105 L61.3787234,89.2294737 C61.227904,88.8634992 61.1020891,88.4879176 61.0021277,88.1052632 C60.9056698,88.4874249 60.7841355,88.8629581 60.6382979,89.2294737 L59.6170213,91.4842105 L59.6234043,91.4842105 Z M64.1106383,95.3684211 L62.9744681,92.8231579 L59.0170213,92.8231579 L57.8553191,95.3684211 L56.1510638,95.3684211 L60.9893617,85.0863158 L65.8212766,95.3684211 L64.1106383,95.3684211 Z M66.7659574,95.3684211 L66.7659574,85.4778947 L68.387234,85.4778947 L68.387234,93.9284211 L72.0255319,93.9284211 L72.0255319,95.3684211 L66.7659574,95.3684211 L66.7659574,95.3684211 Z M79.1808511,93.9157895 L80.5468085,93.9157895 C81.293617,93.9157895 81.8617021,93.8652632 82.2319149,93.7705263 C82.6148936,93.6694737 82.9340426,93.5052632 83.2148936,93.2652632 C83.5930054,92.9452557 83.8847411,92.5372184 84.0638298,92.0778947 C84.2553191,91.5978947 84.3446809,91.0484211 84.3446809,90.4168421 C84.3446809,89.7852632 84.2553191,89.2357895 84.0638298,88.7621053 C83.8866011,88.2982168 83.5947367,87.8856566 83.2148936,87.5621053 C82.9187611,87.3238161 82.5716964,87.1553501 82.2,87.0694737 C81.8042553,86.9684211 81.1914894,86.9178947 80.3489362,86.9178947 L79.1808511,86.9178947 L79.1808511,93.9157895 L79.1808511,93.9157895 Z M77.5531915,95.3684211 L77.5531915,85.4778947 L79.7489362,85.4778947 C81.1723404,85.4778947 82.1744681,85.5536842 82.7489362,85.6926316 C84.0335572,85.9885519 85.0928071,86.8835585 85.5893617,88.0926316 C85.8977854,88.8332819 86.049838,89.6285286 86.0361702,90.4294737 C86.0361702,91.3136842 85.8893617,92.0842105 85.5893617,92.7663158 C85.305634,93.4278629 84.8550975,94.0063079 84.2808511,94.4463158 C83.8404255,94.7747368 83.3425532,95.0147368 82.787234,95.1536842 C82.2319149,95.2989474 81.3638298,95.3684211 80.1829787,95.3684211 L77.5531915,95.3684211 L77.5531915,95.3684211 Z M87.9319149,95.3684211 L87.9319149,85.4778947 L89.5531915,85.4778947 L89.5531915,95.3684211 L87.9319149,95.3684211 Z M97.4234043,90.3031579 L101.380851,90.3031579 L101.387234,90.5873684 C101.406383,90.9031579 101.412766,91.1242105 101.412766,91.2378947 C101.412766,92.6273684 101.010638,93.7010526 100.2,94.4778947 C99.3957447,95.2484211 98.2595745,95.6336842 96.7978723,95.6336842 C96.0521282,95.6451422 95.3104274,95.5231832 94.6085106,95.2736842 C93.9638298,95.0336842 93.4021277,94.6736842 92.9170213,94.1936842 C92.4429485,93.7130535 92.0736252,93.141254 91.8319149,92.5136842 C91.5743808,91.8529517 91.4444722,91.1502598 91.4489362,90.4421053 C91.4489362,89.6968421 91.5765957,89.0084211 91.8319149,88.3768421 C92.093617,87.7452632 92.4702128,87.1894737 92.9808511,86.7094737 C93.4691656,86.2359441 94.0517284,85.868147 94.6914894,85.6294737 C95.3644336,85.3779701 96.078544,85.2516398 96.7978723,85.2568421 C97.5829787,85.2568421 98.2851064,85.4021053 98.9042553,85.6863158 C99.5523662,85.9889613 100.122145,86.433938 100.570213,86.9873684 L99.3829787,87.8715789 C99.071374,87.5032145 98.6811777,87.2077163 98.2404255,87.0063158 C97.8191489,86.8168421 97.3468085,86.7221053 96.8234043,86.7221053 C95.7382979,86.7221053 94.8574468,87.0694737 94.1744681,87.7515789 C93.477504,88.4683974 93.1063388,89.4355866 93.1468085,90.4294737 C93.1468085,91.5473684 93.4851064,92.4505263 94.1680851,93.1452632 C94.8689793,93.8502777 95.8374104,94.2308216 96.8361702,94.1936842 C97.6193677,94.2365884 98.3932938,94.0088639 99.0255319,93.5494737 C99.5587693,93.1254609 99.8571771,92.476343 99.8297872,91.8 L99.8297872,91.6610526 L97.4234043,91.6610526 L97.4234043,90.3031579 L97.4234043,90.3031579 Z M103.142553,95.3684211 L103.142553,85.4778947 L104.770213,85.4778947 L104.770213,95.3684211 L103.142553,95.3684211 Z M110.329787,86.8421053 L110.329787,95.3684211 L108.708511,95.3684211 L108.708511,86.8421053 L106.053191,86.8421053 L106.053191,85.4778947 L112.97234,85.4778947 L112.97234,86.8421053 L110.329787,86.8421053 L110.329787,86.8421053 Z M116.329787,91.4842105 L119.106383,91.4842105 L118.085106,89.2294737 C117.934287,88.8634992 117.808472,88.4879176 117.708511,88.1052632 C117.614138,88.4872765 117.494736,88.8628071 117.351064,89.2294737 L116.329787,91.4842105 Z M120.817021,95.3684211 L119.680851,92.8231579 L115.723404,92.8231579 L114.561702,95.3684211 L112.857447,95.3684211 L117.695745,85.0863158 L122.52766,95.3684211 L120.817021,95.3684211 L120.817021,95.3684211 Z M123.47234,95.3684211 L123.47234,85.4778947 L125.093617,85.4778947 L125.093617,93.9284211 L128.731915,93.9284211 L128.731915,95.3684211 L123.47234,95.3684211 L123.47234,95.3684211 Z M134.259574,95.3684211 L134.259574,85.4778947 L135.887234,85.4778947 L135.887234,93.9284211 L139.519149,93.9284211 L139.519149,95.3684211 L134.259574,95.3684211 Z M142.940426,91.4842105 L145.825532,91.4842105 L144.982979,89.2294737 C144.783198,88.6938298 144.621109,88.1451514 144.497872,87.5873684 C144.392412,88.106905 144.223067,88.6117126 143.993617,89.0905263 L142.946809,91.4905263 L142.940426,91.4842105 Z M148.761702,85.4842105 L149.33617,86.8421053 L145.67234,86.8421053 L146.553191,89.2673684 L149.904255,89.2673684 L150.440426,90.6821053 L147.095745,90.6821053 L148.314894,93.9284211 L151.985106,93.9284211 L152.534043,95.3684211 L147.261702,95.3684211 L146.317021,92.8231579 L142.340426,92.8231579 L141.191489,95.3684211 L139.480851,95.3684211 L144.153191,85.4778947 L148.768085,85.4778947 L148.761702,85.4842105 Z M155.195745,89.6968421 L155.489362,89.6968421 C156.351064,89.6968421 156.919149,89.5957895 157.2,89.4 C157.487234,89.1978947 157.62766,88.8505263 157.62766,88.3452632 C157.62766,87.8021053 157.474468,87.4168421 157.174468,87.1957895 C156.868085,86.9684211 156.306383,86.8610526 155.489362,86.8610526 L155.195745,86.8610526 L155.195745,89.6968421 L155.195745,89.6968421 Z M155.093617,90.9473684 L155.093617,95.3684211 L153.574468,95.3684211 L153.574468,85.4778947 L155.840426,85.4778947 C156.504255,85.4778947 157.014894,85.5221053 157.385106,85.6042105 C157.72543,85.6789857 158.045464,85.8254705 158.323404,86.0336842 C158.629787,86.2736842 158.87234,86.5831579 159.038298,86.9621053 C159.204255,87.3410526 159.293617,87.7515789 159.293617,88.2 C159.333773,88.8700839 159.127447,89.531903 158.712766,90.0631579 C158.26697,90.5413287 157.651932,90.8309053 156.995745,90.8715789 L160.442553,95.3684211 L158.604255,95.3684211 L155.278723,90.9473684 L155.093617,90.9473684 L155.093617,90.9473684 Z M161.425532,95.3684211 L161.425532,85.4778947 L163.053191,85.4778947 L163.053191,95.3684211 L161.425532,95.3684211 L161.425532,95.3684211 Z M165.382979,95.3684211 L165.382979,85.0863158 L171.734043,91.1368421 C172.116514,91.5179681 172.478705,91.9185085 172.819149,92.3368421 L172.819149,85.4778947 L174.319149,85.4778947 L174.319149,95.7536842 L167.840426,89.6021053 C167.489663,89.259421 167.169334,88.8875246 166.882979,88.4905263 L166.882979,95.3684211 L165.389362,95.3684211 L165.382979,95.3684211 Z M182.151064,90.3031579 L186.108511,90.3031579 L186.114894,90.5873684 L186.134043,91.2378947 C186.134043,92.6273684 185.731915,93.7010526 184.92766,94.4778947 C184.123404,95.2484211 182.987234,95.6336842 181.519149,95.6336842 C180.773405,95.6451422 180.031704,95.5231832 179.329787,95.2736842 C178.691489,95.0336842 178.129787,94.6736842 177.644681,94.1936842 C177.170608,93.7130535 176.801285,93.141254 176.559574,92.5136842 C176.30204,91.8529517 176.172132,91.1502598 176.176596,90.4421053 C176.176596,89.6968421 176.304255,89.0084211 176.559574,88.3768421 C176.814894,87.7452632 177.197872,87.1894737 177.708511,86.7094737 C178.196825,86.2359441 178.779388,85.868147 179.419149,85.6294737 C180.092093,85.3779701 180.806204,85.2516398 181.525532,85.2568421 C182.310638,85.2568421 183.012766,85.4021053 183.631915,85.6863158 C184.277718,85.9897714 184.845245,86.4346936 185.291489,86.9873684 L184.110638,87.8715789 C183.799034,87.5032145 183.408837,87.2077163 182.968085,87.0063158 C182.546809,86.8168421 182.074468,86.7221053 181.551064,86.7221053 C180.465957,86.7221053 179.585106,87.0694737 178.895745,87.7515789 C178.201108,88.4694379 177.832297,89.4365007 177.874468,90.4294737 C177.874468,91.5473684 178.212766,92.4505263 178.895745,93.1452632 C179.596639,93.8502777 180.56507,94.2308216 181.56383,94.1936842 C182.347027,94.2365884 183.120953,94.0088639 183.753191,93.5494737 C184.284042,93.1241695 184.57999,92.4752517 184.551064,91.8 L184.551064,91.6610526 L182.151064,91.6610526 L182.151064,90.3031579 L182.151064,90.3031579 Z M187.270213,93.3915789 L188.565957,92.7978947 C188.693617,93.24 188.917021,93.5747368 189.242553,93.8084211 C189.613944,94.0530587 190.054249,94.1746924 190.5,94.1557895 C190.978723,94.1557895 191.361702,94.0168421 191.648936,93.7515789 C191.929787,93.4863158 192.076596,93.1326316 192.076596,92.6842105 C192.076596,92.1094737 191.585106,91.5915789 190.608511,91.1368421 L190.302128,90.9852632 C189.197872,90.4547368 188.46383,89.9747368 188.1,89.5452632 C187.72885,89.1026261 187.533667,88.5412061 187.551064,87.9663158 C187.523638,87.2247745 187.82708,86.5088001 188.380851,86.0084211 C188.929787,85.5031579 189.657447,85.2568421 190.551064,85.2568421 C191.291489,85.2568421 191.904255,85.3957895 192.402128,85.68 C192.883405,85.9458051 193.24915,86.3773812 193.429787,86.8926316 L192.165957,87.5431579 C191.961702,87.2273684 191.744681,87 191.502128,86.8610526 C191.265957,86.7157895 190.991489,86.64 190.678723,86.64 C190.244681,86.64 189.9,86.7536842 189.638298,86.9810526 C189.382979,87.2084211 189.255319,87.5052632 189.255319,87.8842105 C189.255319,88.4778947 189.817021,89.0336842 190.946809,89.5452632 L191.151064,89.64 C191.914109,89.9400584 192.607042,90.3914191 193.187234,90.9663158 C193.557447,91.3894737 193.742553,91.9263158 193.742553,92.5705263 C193.784932,93.4085041 193.459111,94.2236938 192.848936,94.8063158 C192.179894,95.3830577 191.309276,95.6777655 190.423404,95.6273684 C189.580851,95.6273684 188.878723,95.4378947 188.33617,95.0526316 C187.783506,94.6502515 187.403205,94.0576379 187.270213,93.3915789 L187.270213,93.3915789 Z M197.623404,91.4842105 L200.406383,91.4842105 L199.385106,89.2294737 C199.234287,88.8634992 199.108472,88.4879176 199.008511,88.1052632 C198.912053,88.4874249 198.790518,88.8629581 198.644681,89.2294737 L197.623404,91.4842105 L197.623404,91.4842105 Z M202.117021,95.3684211 L200.980851,92.8231579 L197.023404,92.8231579 L195.861702,95.3684211 L194.157447,95.3684211 L198.995745,85.0863158 L203.82766,95.3684211 L202.117021,95.3684211 Z M206.393617,89.6968421 L206.687234,89.6968421 C207.548936,89.6968421 208.117021,89.5957895 208.397872,89.4 C208.685106,89.1978947 208.825532,88.8505263 208.825532,88.3452632 C208.825532,87.8021053 208.67234,87.4168421 208.37234,87.1957895 C208.065957,86.9684211 207.504255,86.8610526 206.687234,86.8610526 L206.393617,86.8610526 L206.393617,89.6968421 L206.393617,89.6968421 Z M206.291489,90.9473684 L206.291489,95.3684211 L204.77234,95.3684211 L204.77234,85.4778947 L207.038298,85.4778947 C207.702128,85.4778947 208.212766,85.5221053 208.582979,85.6042105 C208.923302,85.6789857 209.243337,85.8254705 209.521277,86.0336842 C209.82766,86.2736842 210.070213,86.5831579 210.23617,86.9621053 C210.408511,87.3410526 210.491489,87.7515789 210.491489,88.2 C210.531646,88.8700839 210.32532,89.531903 209.910638,90.0631579 C209.464842,90.5413287 208.849805,90.8309053 208.193617,90.8715789 L211.640426,95.3684211 L209.802128,95.3684211 L206.476596,90.9473684 L206.291489,90.9473684 L206.291489,90.9473684 Z M212.597872,95.3684211 L212.597872,85.4778947 L218.176596,85.4778947 L218.176596,86.8421053 L214.219149,86.8421053 L214.219149,89.3242105 L218.176596,89.3242105 L218.176596,90.7326316 L214.219149,90.7326316 L214.219149,93.9284211 L218.176596,93.9284211 L218.176596,95.3684211 L212.597872,95.3684211 L212.597872,95.3684211 Z M220.040426,95.3684211 L220.040426,85.0863158 L226.385106,91.1368421 C226.767578,91.5179681 227.129769,91.9185085 227.470213,92.3368421 L227.470213,85.4778947 L228.970213,85.4778947 L228.970213,95.7536842 L222.497872,89.6021053 C222.144899,89.259683 221.822428,88.8877789 221.534043,88.4905263 L221.534043,95.3684211 L220.040426,95.3684211 L220.040426,95.3684211 Z M233.380851,91.4842105 L236.157447,91.4842105 L235.13617,89.2294737 C234.985351,88.8634992 234.859536,88.4879176 234.759574,88.1052632 C234.665202,88.4872765 234.5458,88.8628071 234.402128,89.2294737 L233.380851,91.4842105 L233.380851,91.4842105 Z M237.868085,95.3684211 L236.731915,92.8231579 L232.774468,92.8231579 L231.612766,95.3684211 L229.908511,95.3684211 L234.746809,85.0863158 L239.578723,95.3684211 L237.868085,95.3684211 Z" id="Shape"></path>
                </g>
            </g>
        </g>
    </g>
</svg>