<?xml version="1.0" encoding="UTF-8"?>
<svg width="240px" height="96px" viewBox="0 0 240 96" version="1.1" xmlns="http://www.w3.org/2000/svg" xmlns:xlink="http://www.w3.org/1999/xlink">
    <!-- Generator: Sketch 53.2 (72643) - https://sketchapp.com -->
    <title>logo_eng</title>
    <desc>Created with Sketch.</desc>
    <g id="design-system" stroke="none" stroke-width="1" fill="none" fill-rule="evenodd">
        <g id="Artboard" transform="translate(-561.000000, -591.000000)" fill="#20588F">
            <g id="logo_eng" transform="translate(561.000000, 591.000000)">
                <path d="M226.595745,42.7659574 L172.978723,42.7659574 L172.978723,75.3191489 L238.085106,75.3191489 L238.085106,32.5531915 L226.595745,32.5531915 L226.595745,42.7659574 Z M226.595745,51.7021277 L184.468085,51.7021277 L184.468085,63.8297872 L226.595745,63.8297872 L226.595745,51.7021277 Z M172.978723,21.0638298 L172.978723,32.5531915 L226.595745,32.5531915 L226.595745,21.0638298 L172.978723,21.0638298 Z" id="Shape"></path>
                <rect id="Rectangle" transform="translate(156.382979, 37.659574) scale(-1, 1) translate(-156.382979, -37.659574) " x="150.638298" y="0" width="11.4893617" height="75.3191489"></rect>
                <path d="M128.297872,63.8297872 L128.297872,32.5531915 L86.8085106,32.5531915 L86.8085106,63.8297872 L128.297872,63.8297872 Z M139.787234,75.3191489 L139.787234,0 L128.297872,0 L128.297872,21.0638298 L75.3191489,21.0638298 L75.3191489,75.3191489 L139.787234,75.3191489 Z" id="Shape"></path>
                <polygon id="Path" points="11.4893617 32.5531915 11.4893617 75.3191489 0 75.3191489 0 21.0638298 64.4680851 21.0638298 64.4680851 75.3191489 52.9787234 75.3191489 52.9787234 32.5531915"></polygon>
                <path d="M0.542918919,95.1488626 L0.542918919,85.4347004 L7.12410811,92.3739437 L7.12410811,86.0528626 L8.4862703,86.0528626 L8.4862703,95.7021599 L1.90508108,88.7804301 L1.90508108,95.1488626 L0.542918919,95.1488626 Z M10.2804324,90.5596734 C10.2804324,89.2792409 10.7461622,88.1797815 11.6776216,87.2606464 C12.6051892,86.3415112 13.7195676,85.882268 15.0207567,85.882268 C16.3063784,85.882268 17.4097297,86.3454031 18.3288649,87.2729707 C19.2525405,88.1998896 19.7143784,89.3136193 19.7143784,90.6128626 C19.7143784,91.9205382 19.2505946,93.0303761 18.323027,93.9410788 C17.3915676,94.856322 16.2674595,95.3136193 14.9507027,95.3136193 C13.7857297,95.3136193 12.7388108,94.9069166 11.8118919,94.0941599 C10.7909189,93.1944842 10.2804324,92.0165382 10.2804324,90.5596734 Z M11.6542703,90.5739436 C11.6542703,91.5787004 11.9896216,92.4044301 12.6596757,93.0517815 C13.3258378,93.6991328 14.0957838,94.0228085 14.9688649,94.0228085 C15.9158919,94.0228085 16.7143784,93.693295 17.364973,93.034268 C18.0155676,92.3674571 18.3411892,91.555349 18.3411892,90.5979436 C18.3411892,89.6288626 18.0194595,88.8161058 17.3766486,88.1609707 C16.7377297,87.501295 15.9463784,87.1724301 15.0038919,87.1724301 C14.0646486,87.1724301 13.272,87.5019436 12.6246486,88.1609707 C11.9772973,88.8122139 11.6542703,89.6165382 11.6542703,90.5739436 Z M24.4838919,91.2718896 L27.2776216,95.1482139 L25.6118919,95.1482139 L23.0341622,91.4249707 L22.788973,91.4249707 L22.788973,95.1482139 L21.4268108,95.1482139 L21.4268108,86.0528626 L23.0224865,86.0528626 C24.2147027,86.0528626 25.0761081,86.2785923 25.6060541,86.7300518 C26.1904865,87.2327545 26.483027,87.896322 26.483027,88.7207545 C26.483027,89.3648626 26.2994595,89.9188085 25.9336216,90.3825923 C25.5671351,90.8463761 25.0838919,91.1428085 24.4838919,91.2718896 Z M22.788973,90.2295112 L23.2216216,90.2295112 C24.5111351,90.2295112 25.1558919,89.7326464 25.1558919,88.7389166 C25.1558919,87.8081058 24.5286486,87.3430247 23.2741622,87.3430247 L22.788973,87.3430247 L22.788973,90.2295112 Z M28.7565405,86.0528626 L31.1065946,92.1326463 L33.5617297,85.6111328 L35.9111351,92.1326463 L38.4071351,86.0528626 L39.8860541,86.0528626 L35.8527567,95.7261599 L33.5318919,89.2811869 L31.1124324,95.7319977 L27.2782703,86.0535112 L28.7565405,86.0535112 L28.7565405,86.0528626 Z M45.9878919,87.3430247 L42.3697297,87.3430247 L42.3697297,89.5289707 L45.8828108,89.5289707 L45.8828108,90.8191328 L42.3697297,90.8191328 L42.3697297,93.859349 L45.9878919,93.859349 L45.9878919,95.1495112 L41.0075676,95.1495112 L41.0075676,86.0541599 L45.9878919,86.0541599 L45.9878919,87.3430247 Z M52.4179459,90.4124301 L56.147027,90.4124301 L56.147027,90.7127545 C56.147027,91.3964301 56.0672433,92.0009707 55.9076757,92.5270247 C55.752,93.0141599 55.4886486,93.4695112 55.1182703,93.8937274 C54.2802162,94.8439977 53.2144865,95.3194571 51.9210811,95.3194571 C50.6581622,95.3194571 49.5768649,94.8602139 48.6771892,93.9410788 C47.7768649,93.0180518 47.3267027,91.9108085 47.3267027,90.6187004 C47.3267027,89.2987004 47.7846486,88.1797815 48.7005405,87.2606464 C49.6164324,86.3376193 50.7308108,85.8764301 52.0436757,85.8764301 C52.7487567,85.8764301 53.4077838,86.0210788 54.0194595,86.3103761 C54.6038919,86.5996734 55.1785946,87.069295 55.7435676,87.7198896 L54.7731892,88.6565382 C54.0324324,87.6628085 53.1308108,87.1659436 52.067027,87.1659436 C51.1122162,87.1659436 50.3111351,87.4980518 49.6644324,88.1616193 C49.0177297,88.8135112 48.6940541,89.6308085 48.6940541,90.6122139 C48.6940541,91.6254031 49.0540541,92.4602139 49.7753514,93.1159977 C50.4492973,93.7244301 51.1803243,94.029295 51.9671351,94.029295 C52.6371892,94.029295 53.2391351,93.802268 53.7736216,93.3475653 C54.3074595,92.8889707 54.6051892,92.3408626 54.6674595,91.7019437 L52.4172973,91.7019437 L52.4172973,90.4124301 L52.4179459,90.4124301 Z M59.2216216,86.0528626 L59.2216216,95.1482139 L57.8594595,95.1482139 L57.8594595,86.0528626 L59.2216216,86.0528626 Z M66.6914591,92.9395653 L62.8281081,92.9395653 L61.8227027,95.1488626 L60.3554595,95.1488626 L64.8207568,85.4814031 L69.1284326,95.1488626 L67.6378379,95.1488626 L66.6914591,92.9395653 Z M66.136216,91.6494031 L64.7980538,88.5566464 L63.395027,91.6494031 L66.136216,91.6494031 Z M70.2570811,95.1488626 L70.2570811,85.4347004 L76.8382704,92.3739437 L76.8382704,86.0528626 L78.2004326,86.0528626 L78.2004326,95.7021599 L71.6192432,88.7804301 L71.6192432,95.1488626 L70.2570811,95.1488626 Z M84.0570811,95.1488626 L84.0570811,86.0535112 L85.9504864,86.0535112 C86.8585947,86.0535112 87.5753515,86.1436734 88.1014053,86.3239977 C88.6663781,86.5004301 89.1788106,86.8014031 89.638703,87.2256193 C90.5701621,88.0818355 91.0358917,89.2072409 91.0358917,90.6011869 C91.0358917,91.9990247 90.550703,93.130268 89.5803243,93.994268 C89.0931894,94.4269166 88.582703,94.7265923 88.0488651,94.8958896 C87.5500538,95.0645382 86.8430272,95.1495112 85.9271349,95.1495112 L84.0570811,95.1495112 L84.0570811,95.1488626 Z M85.4192432,93.8587004 L86.0328651,93.8587004 C86.6445409,93.8587004 87.1530811,93.7938356 87.5584864,93.6641058 C87.9638917,93.5265923 88.3297296,93.3086463 88.657297,93.010268 C89.3273515,92.3940518 89.662703,91.5910247 89.662703,90.6011869 C89.662703,89.6035653 89.3312432,88.7947004 88.6689728,88.1739436 C88.0728651,87.6199977 87.1939462,87.3430247 86.0328651,87.3430247 L85.4192432,87.3430247 L85.4192432,93.8587004 Z M94.1104864,86.0528626 L94.1104864,95.1482139 L92.7483243,95.1482139 L92.7483243,86.0528626 L94.1104864,86.0528626 Z M100.92,90.4124301 L104.649081,90.4124301 L104.649081,90.7127545 C104.649081,91.3964301 104.569297,92.0009707 104.40973,92.5270247 C104.254054,93.0141599 103.990703,93.4695112 103.620324,93.8937274 C102.78227,94.8439977 101.716541,95.3194571 100.423135,95.3194571 C99.160216,95.3194571 98.0789189,94.8602139 97.1792432,93.9410788 C96.2789189,93.0180518 95.8287568,91.9108085 95.8287568,90.6187004 C95.8287568,89.2987004 96.286703,88.1797815 97.2025947,87.2606464 C98.1184864,86.3376193 99.2328651,85.8764301 100.54573,85.8764301 C101.250811,85.8764301 101.909838,86.0210788 102.521514,86.3103761 C103.105946,86.5996734 103.680649,87.069295 104.245622,87.7198896 L103.275243,88.6565382 C102.534486,87.6628085 101.632865,87.1659436 100.569081,87.1659436 C99.6142704,87.1659436 98.8131894,87.4980518 98.1664864,88.1616193 C97.519784,88.8135112 97.1961083,89.6308085 97.1961083,90.6122139 C97.1961083,91.6254031 97.5561083,92.4602139 98.2774053,93.1159977 C98.9513515,93.7244301 99.6823781,94.029295 100.469189,94.029295 C101.139243,94.029295 101.741189,93.802268 102.275676,93.3475653 C102.809514,92.8889707 103.107243,92.3408626 103.169514,91.7019437 L100.919351,91.7019437 L100.919351,90.4124301 L100.92,90.4124301 Z M107.723676,86.0528626 L107.723676,95.1482139 L106.361514,95.1482139 L106.361514,86.0528626 L107.723676,86.0528626 Z M112.38227,87.3430247 L112.38227,95.1488626 L111.020108,95.1488626 L111.020108,87.3430247 L108.945081,87.3430247 L108.945081,86.0528626 L114.451459,86.0528626 L114.451459,87.3430247 L112.38227,87.3430247 Z M120.478054,92.9395653 L116.614054,92.9395653 L115.608649,95.1488626 L114.141405,95.1488626 L118.606703,85.4814031 L122.914378,95.1488626 L121.423784,95.1488626 L120.478054,92.9395653 Z M119.922162,91.6494031 L118.584,88.5566464 L117.180973,91.6494031 L119.922162,91.6494031 Z M125.405189,86.0528626 L125.405189,93.8587004 L128.058811,93.8587004 L128.058811,95.1488626 L124.043027,95.1488626 L124.043027,86.0535112 L125.405189,86.0535112 L125.405189,86.0528626 Z M134.406486,86.0528626 L134.406486,93.8587004 L137.060108,93.8587004 L137.060108,95.1488626 L133.044324,95.1488626 L133.044324,86.0535112 L134.406486,86.0535112 L134.406486,86.0528626 Z M143.331892,87.3430247 L139.71373,87.3430247 L139.71373,89.5289707 L143.226811,89.5289707 L143.226811,90.8191328 L139.71373,90.8191328 L139.71373,93.859349 L143.331892,93.859349 L143.331892,95.1495112 L138.351567,95.1495112 L138.351567,86.0541599 L143.331892,86.0541599 L143.331892,87.3430247 Z M150.42227,92.9395653 L146.55827,92.9395653 L145.552865,95.1488626 L144.085622,95.1488626 L148.550919,85.4814031 L152.858595,95.1488626 L151.368,95.1488626 L150.42227,92.9395653 Z M149.866378,91.6494031 L148.528216,88.5566464 L147.125189,91.6494031 L149.866378,91.6494031 Z M157.044324,91.2718896 L159.838054,95.1482139 L158.172324,95.1482139 L155.594595,91.4249707 L155.349405,91.4249707 L155.349405,95.1482139 L153.987243,95.1482139 L153.987243,86.0528626 L155.582919,86.0528626 C156.775135,86.0528626 157.636541,86.2785923 158.166486,86.7300518 C158.750919,87.2327545 159.043459,87.896322 159.043459,88.7207545 C159.043459,89.3648626 158.859892,89.9188085 158.494054,90.3825923 C158.127567,90.8463761 157.644973,91.1428085 157.044324,91.2718896 Z M155.349405,90.2295112 L155.782054,90.2295112 C157.071567,90.2295112 157.716324,89.7326464 157.716324,88.7389166 C157.716324,87.8081058 157.089081,87.3430247 155.834595,87.3430247 L155.349405,87.3430247 L155.349405,90.2295112 Z M161.194378,95.1488626 L161.194378,85.4347004 L167.775567,92.3739437 L167.775567,86.0528626 L169.13773,86.0528626 L169.13773,95.7021599 L162.556541,88.7804301 L162.556541,95.1488626 L161.194378,95.1488626 Z M172.662486,86.0528626 L172.662486,95.1482139 L171.300324,95.1482139 L171.300324,86.0528626 L172.662486,86.0528626 Z M174.830919,95.1488626 L174.830919,85.4347004 L181.412108,92.3739437 L181.412108,86.0528626 L182.77427,86.0528626 L182.77427,95.7021599 L176.193081,88.7804301 L176.193081,95.1488626 L174.830919,95.1488626 Z M189.671351,90.4124301 L193.400433,90.4124301 L193.400433,90.7127545 C193.400433,91.3964301 193.320649,92.0009707 193.161081,92.5270247 C193.005405,93.0141599 192.742054,93.4695112 192.371676,93.8937274 C191.533622,94.8439977 190.467892,95.3194571 189.174486,95.3194571 C187.911567,95.3194571 186.83027,94.8602139 185.930595,93.9410788 C185.03027,93.0180518 184.580108,91.9108085 184.580108,90.6187004 C184.580108,89.2987004 185.038054,88.1797815 185.953946,87.2606464 C186.869838,86.3376193 187.984216,85.8764301 189.297081,85.8764301 C190.002162,85.8764301 190.661189,86.0210788 191.272865,86.3103761 C191.857297,86.5996734 192.432,87.069295 192.996973,87.7198896 L192.026595,88.6565382 C191.285838,87.6628085 190.384216,87.1659436 189.320433,87.1659436 C188.365622,87.1659436 187.564541,87.4980518 186.917838,88.1616193 C186.271135,88.8135112 185.947459,89.6308085 185.947459,90.6122139 C185.947459,91.6254031 186.307459,92.4602139 187.028757,93.1159977 C187.702703,93.7244301 188.43373,94.029295 189.220541,94.029295 C189.890595,94.029295 190.492541,93.802268 191.027027,93.3475653 C191.560865,92.8889707 191.858595,92.3408626 191.920865,91.7019437 L189.670703,91.7019437 L189.670703,90.4124301 L189.671351,90.4124301 Z M204.108973,92.9395653 L200.244973,92.9395653 L199.239567,95.1488626 L197.772973,95.1488626 L202.23827,85.4814031 L206.545946,95.1488626 L205.055351,95.1488626 L204.108973,92.9395653 Z M203.55373,91.6494031 L202.215567,88.5566464 L200.812541,91.6494031 L203.55373,91.6494031 Z M210.731027,91.2718896 L213.524757,95.1482139 L211.859027,95.1482139 L209.281297,91.4249707 L209.036108,91.4249707 L209.036108,95.1482139 L207.673946,95.1482139 L207.673946,86.0528626 L209.269622,86.0528626 C210.461838,86.0528626 211.323243,86.2785923 211.853189,86.7300518 C212.437622,87.2327545 212.730162,87.896322 212.730162,88.7207545 C212.730162,89.3648626 212.546595,89.9188085 212.180757,90.3825923 C211.81427,90.8463761 211.331676,91.1428085 210.731027,91.2718896 Z M209.036108,90.2295112 L209.468757,90.2295112 C210.75827,90.2295112 211.403027,89.7326464 211.403027,88.7389166 C211.403027,87.8081058 210.775784,87.3430247 209.521297,87.3430247 L209.036108,87.3430247 L209.036108,90.2295112 Z M219.861405,87.3430247 L216.243243,87.3430247 L216.243243,89.5289707 L219.756324,89.5289707 L219.756324,90.8191328 L216.243243,90.8191328 L216.243243,93.859349 L219.861405,93.859349 L219.861405,95.1495112 L214.881081,95.1495112 L214.881081,86.0541599 L219.861405,86.0541599 L219.861405,87.3430247 Z M221.64973,95.1488626 L221.64973,85.4347004 L228.230919,92.3739437 L228.230919,86.0528626 L229.593081,86.0528626 L229.593081,95.7021599 L223.011892,88.7804301 L223.011892,95.1488626 L221.64973,95.1488626 Z M237.127784,92.9395653 L233.263784,92.9395653 L232.258378,95.1488626 L230.791135,95.1488626 L235.256433,85.4814031 L239.564108,95.1488626 L238.073514,95.1488626 L237.127784,92.9395653 Z M236.572541,91.6494031 L235.234378,88.5566464 L233.831351,91.6494031 L236.572541,91.6494031 Z" id="Combined-Shape"></path>
            </g>
        </g>
    </g>
</svg>